{"glyphs":{"0":{"ha":714,"x_min":40,"x_max":696,"o":"m 693 651 l 636 154 q 601 40 633 82 q 511 0 568 -3 l 138 0 q 83 16 103 0 q 54 56 64 32 q 42 106 44 81 q 43 151 40 132 l 100 651 q 135 760 107 717 q 235 803 164 803 l 589 804 q 649 792 626 804 q 681 758 671 779 q 694 710 692 738 q 693 651 696 682 m 489 704 l 310 703 l 249 124 l 428 125 l 489 704 z "},"1":{"ha":331,"x_min":7,"x_max":328,"o":"m 233 0 l 28 0 l 36 76 l 108 693 l 7 693 l 50 804 l 328 804 l 233 0 l 233 0 l 233 0 z "},"2":{"ha":668,"x_min":25,"x_max":657,"o":"m 25 0 l 57 290 q 92 385 68 351 q 157 424 117 419 l 415 474 l 446 700 l 308 700 l 293 585 l 93 586 l 101 682 q 123 756 107 731 q 158 792 139 781 q 194 803 176 803 q 222 804 213 804 l 539 804 q 569 801 547 804 q 610 782 590 797 q 644 735 631 767 q 650 647 657 704 l 626 458 q 609 408 622 428 q 578 376 596 389 q 541 357 561 364 q 504 346 521 350 l 268 300 l 243 104 l 603 104 l 557 0 l 25 0 z "},"3":{"ha":650,"x_min":40,"x_max":635,"o":"m 606 488 q 595 447 603 463 q 577 422 588 431 q 554 408 567 413 q 532 404 542 404 q 573 381 558 401 q 588 319 588 361 l 569 143 q 553 85 565 111 q 525 40 542 58 q 490 10 508 21 q 453 0 471 0 l 113 0 q 68 15 83 0 q 47 54 53 29 q 41 113 40 79 q 47 182 42 146 l 60 257 l 260 257 l 246 121 l 363 122 l 388 349 l 203 349 l 265 457 l 399 457 l 428 703 l 299 703 l 285 581 l 76 581 l 88 671 q 103 735 90 710 q 134 776 117 761 q 171 798 151 792 q 206 804 190 804 l 538 804 q 571 797 553 804 q 603 775 589 790 q 626 738 618 760 q 631 688 635 717 l 606 488 z "},"4":{"ha":664,"x_min":24,"x_max":663,"o":"m 582 76 q 574 49 581 63 q 558 24 568 35 q 538 7 549 14 q 517 0 526 0 l 364 0 l 382 151 l 110 151 q 71 163 90 151 q 40 194 51 174 q 26 243 28 215 q 39 304 24 271 l 239 803 l 385 651 l 243 274 l 396 274 l 440 689 q 478 778 449 754 q 544 803 508 803 l 663 803 l 582 76 z "},"5":{"ha":694,"x_min":33,"x_max":681,"o":"m 681 803 l 644 699 l 315 699 l 293 486 l 553 486 q 622 458 592 486 q 649 383 653 429 l 614 96 q 581 29 608 60 q 511 -1 553 -1 l 136 0 q 58 35 83 0 q 39 114 33 69 q 42 147 40 131 q 47 179 44 164 l 57 256 l 264 256 l 247 118 l 408 118 l 440 379 l 72 379 l 119 803 l 681 803 z "},"6":{"ha":697,"x_min":36,"x_max":671,"o":"m 39 100 l 108 690 q 126 747 113 725 q 160 783 140 769 q 205 801 181 796 q 254 807 229 807 l 671 807 l 632 699 l 317 699 l 294 503 l 551 503 q 588 501 568 503 q 626 492 608 500 q 654 469 643 485 q 661 426 665 454 l 626 104 q 584 28 619 53 q 508 3 549 3 l 111 3 q 86 11 100 3 q 61 33 72 19 q 43 63 50 46 q 39 100 36 81 m 253 119 l 419 119 l 449 394 l 283 394 l 253 119 z "},"7":{"ha":617,"x_min":60,"x_max":617,"o":"m 603 650 l 415 101 q 363 20 394 40 q 294 0 331 0 l 147 0 l 400 701 l 60 701 l 93 803 l 617 803 l 603 650 z "},"8":{"ha":688,"x_min":36,"x_max":675,"o":"m 674 714 l 646 486 q 634 444 643 460 q 611 422 625 429 q 581 413 597 415 q 550 411 565 411 q 577 408 563 411 q 604 395 592 404 q 624 372 617 386 q 629 335 631 357 l 606 108 q 586 47 603 68 q 549 15 569 25 q 510 2 529 4 q 485 0 492 0 l 136 0 q 110 3 128 0 q 75 19 92 7 q 47 53 58 31 q 42 113 36 75 l 67 335 q 78 376 69 361 q 100 399 88 392 q 128 409 113 407 q 160 411 144 411 q 133 415 147 411 q 107 426 118 418 q 88 449 96 435 q 83 486 81 464 l 110 715 q 124 757 113 740 q 151 784 135 774 q 184 799 167 794 q 217 804 201 804 l 589 804 q 617 799 601 804 q 645 782 632 793 q 667 753 658 771 q 674 714 675 736 m 461 682 l 314 682 l 292 486 l 439 486 l 461 682 m 424 367 l 276 367 l 250 122 l 400 122 l 424 367 z "},"9":{"ha":699,"x_min":53,"x_max":689,"o":"m 685 707 l 617 125 q 599 66 613 90 q 564 27 585 42 q 518 6 543 13 q 468 0 493 0 l 53 0 l 93 108 l 407 108 l 429 304 l 172 304 q 135 306 156 304 q 98 315 115 307 q 69 338 81 322 q 63 381 58 353 l 97 703 q 134 779 104 754 q 196 804 164 804 l 589 804 q 660 778 632 804 q 685 707 689 751 m 471 686 l 306 686 l 275 413 l 442 413 l 471 686 z "},"\u0000":{"ha":0,"x_min":0,"x_max":0,"o":""},"\r":{"ha":333,"x_min":0,"x_max":0,"o":""}," ":{"ha":300,"x_min":0,"x_max":0,"o":""},"@":{"ha":818,"x_min":38,"x_max":797,"o":"m 796 624 l 751 213 l 644 213 l 467 213 l 454 213 l 457 242 l 349 213 l 283 213 q 259 215 271 213 q 238 226 247 218 q 225 247 229 233 q 224 285 221 261 l 236 386 q 251 419 239 406 q 279 441 263 432 q 315 456 296 450 q 351 467 335 463 l 481 500 l 489 567 l 389 567 l 382 489 l 247 489 l 253 544 q 267 584 256 568 q 293 610 278 600 q 327 624 308 619 q 364 629 346 628 l 651 629 l 626 582 l 593 274 l 651 274 l 706 726 l 208 728 l 139 81 l 739 79 l 701 0 l 118 0 q 76 16 92 0 q 51 56 60 32 q 40 105 42 79 q 40 151 38 131 l 94 647 q 104 694 96 668 q 126 744 113 721 q 159 783 139 767 q 204 799 179 799 l 721 799 q 767 779 751 799 q 790 732 783 760 q 797 674 797 704 q 796 624 797 644 m 356 275 l 464 301 l 476 436 l 371 403 l 356 275 z "},"A":{"ha":725,"x_min":28,"x_max":760,"o":"m 28 0 l 104 653 q 117 711 108 683 q 144 760 126 739 q 187 792 161 781 q 249 804 213 804 l 760 804 l 704 707 l 636 133 q 583 35 621 72 q 475 0 544 -1 l 415 0 l 457 376 l 278 376 l 236 0 l 28 0 m 468 486 l 489 671 l 521 704 l 314 703 l 289 486 l 468 486 z "},"B":{"ha":688,"x_min":25,"x_max":674,"o":"m 671 713 l 643 486 q 631 444 640 460 q 608 422 622 429 q 578 412 594 414 q 547 410 563 410 q 574 406 560 410 q 601 394 589 403 q 621 372 614 386 q 626 335 628 357 l 606 125 q 587 69 603 93 q 549 30 571 46 q 502 6 528 14 q 454 0 476 -1 l 25 0 l 114 804 l 214 804 l 586 804 q 614 799 599 804 q 643 782 629 793 q 665 753 657 771 q 671 713 674 736 m 458 682 l 311 682 l 289 486 l 436 486 l 458 682 m 421 367 l 274 367 l 247 122 l 397 122 l 421 367 z "},"C":{"ha":724,"x_min":40,"x_max":761,"o":"m 638 153 q 626 105 633 132 q 606 55 618 78 q 575 16 593 32 q 532 0 557 0 l 115 0 q 83 10 96 0 q 63 35 71 21 q 49 67 54 50 q 43 100 44 85 q 44 151 40 128 l 100 651 q 140 760 107 715 q 244 804 174 804 l 761 804 l 699 704 l 686 593 l 478 593 l 489 704 l 310 703 l 249 124 l 429 122 l 440 236 l 647 236 l 638 153 z "},"D":{"ha":685,"x_min":26,"x_max":672,"o":"m 667 664 l 610 121 q 589 65 607 88 q 544 28 571 42 q 488 7 518 14 q 429 0 457 0 q 281 -1 354 0 q 133 0 207 -1 l 26 0 l 115 804 l 542 804 q 593 797 568 801 q 636 777 618 792 q 663 736 654 763 q 667 664 672 710 m 460 682 l 313 682 l 253 124 l 399 124 l 460 682 z "},"E":{"ha":697,"x_min":39,"x_max":733,"o":"m 39 117 l 101 653 q 142 760 108 717 q 246 804 175 804 l 733 804 l 678 704 l 311 704 l 286 486 l 599 486 l 582 376 l 275 376 l 246 113 l 625 113 l 613 0 l 164 0 q 75 32 104 1 q 39 117 46 63 z "},"F":{"ha":682,"x_min":26,"x_max":733,"o":"m 26 0 l 101 653 q 142 760 108 717 q 246 804 175 804 l 733 804 l 678 704 l 311 704 l 288 486 l 599 486 l 582 376 l 275 376 l 247 125 q 100 0 217 15 l 26 0 z "},"G":{"ha":707,"x_min":35,"x_max":756,"o":"m 632 153 q 593 46 624 89 q 526 0 564 0 l 110 0 q 61 28 82 0 q 38 100 42 58 q 39 151 35 128 l 94 651 q 135 760 101 715 q 239 804 168 804 l 756 804 l 693 704 l 681 593 l 472 593 l 483 704 l 304 703 l 243 124 l 424 122 l 447 374 l 343 374 q 342 375 342 375 l 353 488 l 458 488 l 563 488 l 664 488 l 632 153 z "},"H":{"ha":744,"x_min":29,"x_max":742,"o":"m 29 0 l 103 668 q 246 804 126 792 l 322 804 l 288 488 l 503 488 l 538 804 l 742 804 l 668 121 q 631 35 668 68 q 542 0 594 1 l 450 0 l 490 371 l 275 371 l 236 0 l 29 0 z "},"I":{"ha":318,"x_min":26,"x_max":319,"o":"m 26 1 l 101 669 q 138 766 108 731 q 228 804 167 801 l 319 804 l 233 1 l 26 1 z "},"J":{"ha":657,"x_min":0,"x_max":657,"o":"m 0 0 l 63 117 l 376 117 l 438 669 q 563 804 450 785 l 657 804 l 579 89 l 622 0 l 0 0 z "},"K":{"ha":739,"x_min":25,"x_max":733,"o":"m 25 0 l 114 804 l 318 804 l 290 539 l 518 804 l 724 804 l 525 567 l 733 0 l 492 0 l 364 372 l 258 246 l 232 0 l 25 0 l 25 0 l 25 0 z "},"L":{"ha":597,"x_min":36,"x_max":557,"o":"m 174 0 q 118 10 143 0 q 74 37 93 19 q 46 78 56 54 q 38 135 36 103 l 111 806 l 315 806 l 243 118 l 557 118 l 546 0 l 174 0 z "},"M":{"ha":899,"x_min":28,"x_max":935,"o":"m 28 0 l 117 804 l 351 804 l 444 336 l 649 804 l 935 804 l 879 704 l 804 0 l 597 0 l 638 365 l 485 0 l 349 0 l 274 360 l 236 0 l 28 0 z "},"N":{"ha":799,"x_min":26,"x_max":800,"o":"m 26 0 l 115 804 l 179 804 l 338 804 l 368 804 l 547 375 l 594 804 l 800 804 l 724 96 l 726 93 l 769 0 l 714 0 l 510 0 l 507 0 l 507 4 l 290 535 l 233 0 l 26 0 l 26 0 l 26 0 z "},"O":{"ha":708,"x_min":38,"x_max":694,"o":"m 690 653 l 635 151 q 622 94 632 121 q 597 44 613 68 q 529 0 565 0 l 113 0 q 64 28 85 0 q 40 100 44 56 q 42 151 38 128 l 97 651 q 135 758 106 715 q 203 803 165 803 l 619 804 q 668 776 647 804 q 692 704 688 746 q 690 653 694 676 m 486 704 l 307 703 l 246 124 l 426 125 l 486 704 z "},"P":{"ha":682,"x_min":28,"x_max":675,"o":"m 28 0 l 117 803 l 118 804 l 544 804 q 596 797 571 801 q 639 777 621 792 q 666 736 657 763 q 669 664 675 710 l 643 393 q 622 337 640 360 q 578 300 604 314 q 521 279 551 286 q 463 272 490 272 l 265 272 l 235 0 l 28 0 m 463 682 l 315 682 l 286 396 l 433 396 l 463 682 z "},"Q":{"ha":707,"x_min":39,"x_max":696,"o":"m 692 653 l 636 153 q 597 46 628 89 q 586 30 592 36 q 574 18 581 24 l 615 -99 l 446 -99 l 410 0 l 114 0 q 65 28 86 0 q 42 100 46 58 q 43 151 39 128 l 99 651 q 136 758 107 715 q 204 804 167 804 l 621 804 q 668 776 649 804 q 685 744 679 763 q 693 704 690 726 q 692 653 696 676 m 326 235 l 439 235 l 488 704 l 308 703 l 247 124 l 365 125 l 326 235 z "},"R":{"ha":688,"x_min":26,"x_max":674,"o":"m 26 0 l 115 804 l 117 804 l 544 804 q 596 797 571 801 q 639 777 621 792 q 665 736 657 763 q 669 664 674 710 l 647 447 q 609 372 643 399 q 532 335 575 346 l 642 0 l 439 0 l 332 326 l 269 326 l 235 0 l 26 0 m 461 682 l 315 682 l 290 450 l 436 450 l 461 682 z "},"S":{"ha":697,"x_min":29,"x_max":731,"o":"m 536 421 q 590 391 571 406 q 619 361 610 376 q 628 328 628 346 q 628 288 629 310 l 606 96 q 572 30 600 60 q 503 0 544 0 l 132 0 q 54 35 79 0 q 35 115 29 71 q 39 149 38 132 q 43 181 40 165 l 54 257 l 260 257 l 243 119 l 400 119 l 424 314 l 175 429 q 99 482 121 453 q 83 556 78 511 l 101 708 q 113 743 104 726 q 134 774 121 760 q 165 796 147 788 q 203 804 182 804 l 731 804 l 678 704 q 673 663 676 688 q 668 624 669 639 l 657 549 l 451 549 l 467 685 l 307 685 l 288 536 l 536 421 z "},"T":{"ha":681,"x_min":61,"x_max":715,"o":"m 183 0 l 260 699 l 83 699 l 61 804 l 715 804 l 660 699 l 465 699 l 390 0 l 183 0 l 183 0 l 183 0 z "},"U":{"ha":704,"x_min":36,"x_max":701,"o":"m 40 150 l 97 694 q 144 770 108 742 q 254 801 179 799 l 315 801 l 244 101 l 424 101 l 494 803 l 701 803 l 633 153 q 596 46 625 92 q 528 1 564 1 l 111 0 q 64 29 82 0 q 39 101 43 57 q 40 150 36 126 z "},"V":{"ha":701,"x_min":65,"x_max":701,"o":"m 65 353 l 99 699 q 143 772 110 744 q 243 803 176 800 l 315 803 l 272 390 l 422 100 l 494 803 l 701 803 l 632 151 q 582 40 624 81 q 490 0 540 0 l 274 0 l 65 353 z "},"W":{"ha":904,"x_min":36,"x_max":910,"o":"m 40 153 l 97 693 q 144 774 111 744 q 240 803 178 803 l 313 803 l 240 101 l 332 101 l 410 807 l 614 807 l 539 101 l 631 101 l 703 803 l 910 803 l 833 99 l 883 0 l 111 0 q 64 29 82 0 q 40 101 44 54 q 40 153 36 125 z "},"X":{"ha":651,"x_min":26,"x_max":651,"o":"m 86 503 l 117 803 l 324 803 l 294 540 l 306 533 l 447 804 l 651 804 l 457 431 l 615 300 l 585 1 l 378 1 l 407 263 l 381 283 l 233 0 l 26 0 l 231 390 l 86 503 l 86 503 l 86 503 z "},"Y":{"ha":682,"x_min":60,"x_max":679,"o":"m 60 503 l 79 688 q 122 774 88 743 q 228 803 157 806 l 299 803 l 268 540 l 349 492 l 440 540 l 472 803 l 679 803 l 640 503 l 449 376 l 410 0 l 201 0 l 242 361 l 60 503 z "},"Z":{"ha":674,"x_min":32,"x_max":719,"o":"m 32 108 l 431 699 l 144 699 l 124 804 l 719 804 l 674 706 l 675 706 l 672 701 l 671 699 l 671 699 l 290 108 l 594 108 l 583 0 l 51 0 l 32 108 l 32 108 l 32 108 z "},"[":{"ha":451,"x_min":19,"x_max":450,"o":"m 19 -67 l 93 603 l 133 972 l 450 972 l 329 893 l 233 0 l 310 -67 l 19 -67 z "},"\\":{"ha":364,"x_min":0,"x_max":0,"o":""},"]":{"ha":438,"x_min":25,"x_max":454,"o":"m 454 960 l 381 290 l 338 -79 l 25 -79 l 146 1 l 240 894 l 164 961 l 454 960 l 454 960 l 454 960 z "},"^":{"ha":572,"x_min":0,"x_max":0,"o":""},"_":{"ha":489,"x_min":0,"x_max":0,"o":""},"`":{"ha":283,"x_min":0,"x_max":0,"o":""},"a":{"ha":647,"x_min":32,"x_max":667,"o":"m 667 631 l 629 560 l 572 -3 l 388 -3 l 392 42 l 226 -3 l 129 -3 q 91 3 110 -1 q 59 18 72 7 q 39 51 46 29 q 36 108 32 72 l 57 261 q 78 312 61 292 q 121 346 96 332 q 175 368 146 360 q 231 383 204 376 l 428 435 l 439 535 l 289 535 l 278 418 l 72 418 l 81 501 q 102 561 85 538 q 143 599 119 585 q 194 621 167 614 q 249 631 222 628 l 667 631 m 238 93 l 401 132 l 422 338 l 261 288 l 238 93 z "},"b":{"ha":621,"x_min":28,"x_max":600,"o":"m 101 701 q 140 768 111 739 q 215 804 168 797 l 297 804 l 278 626 q 325 626 307 626 q 358 626 343 626 q 391 626 374 626 q 438 626 408 626 q 522 615 490 626 q 571 583 554 603 q 594 538 588 563 q 600 486 600 513 l 569 165 q 546 79 563 111 q 504 31 529 47 q 449 8 479 14 q 386 0 418 1 l 28 0 l 101 701 m 421 526 l 276 526 l 232 85 l 381 85 l 421 526 z "},"c":{"ha":631,"x_min":40,"x_max":661,"o":"m 78 490 q 225 628 103 628 l 661 628 l 610 554 l 593 417 l 410 417 l 421 528 l 261 528 l 219 86 l 379 86 l 401 293 l 583 293 l 571 140 q 550 63 567 92 q 508 20 533 35 q 451 3 483 6 q 385 3 419 0 l 182 3 q 75 38 107 4 q 40 132 43 72 l 78 490 l 78 490 z "},"d":{"ha":617,"x_min":36,"x_max":633,"o":"m 633 804 l 554 64 l 593 0 l 190 0 q 129 8 158 1 q 78 31 100 14 q 47 79 57 47 q 40 165 36 111 l 76 486 q 94 538 82 513 q 127 583 106 563 q 183 615 149 603 q 268 626 217 626 q 315 626 297 626 q 347 626 332 626 q 381 626 363 626 q 428 626 399 626 l 438 707 q 478 776 447 751 q 567 804 508 801 l 633 804 m 218 89 l 367 89 l 410 526 l 263 526 l 218 89 z "},"e":{"ha":611,"x_min":36,"x_max":604,"o":"m 74 489 q 221 626 99 626 l 500 626 q 581 591 557 626 q 603 513 604 556 l 576 265 l 232 265 l 217 86 l 564 86 l 556 0 l 181 0 q 72 36 106 1 q 36 129 39 71 l 74 489 m 403 365 l 418 528 l 257 528 l 243 365 l 403 365 z "},"f":{"ha":401,"x_min":26,"x_max":563,"o":"m 219 94 q 183 26 210 50 q 107 0 156 1 l 26 0 l 83 561 q 106 647 89 615 q 149 695 124 678 q 203 719 174 713 q 267 728 233 725 l 563 726 l 524 642 l 271 642 l 251 406 l 396 406 l 389 308 l 242 308 l 219 94 l 219 94 z "},"g":{"ha":590,"x_min":33,"x_max":624,"o":"m 69 496 q 210 626 92 626 l 624 626 l 575 556 l 500 -200 l 328 -200 l 33 -200 l 86 -106 l 336 -106 l 353 53 l 176 26 q 72 61 104 29 q 38 151 40 93 l 69 496 m 361 160 q 370 249 365 207 q 379 333 375 292 q 388 416 383 374 q 397 504 393 458 l 400 531 l 244 531 l 210 107 l 360 133 l 361 160 z "},"h":{"ha":608,"x_min":28,"x_max":593,"o":"m 92 704 q 139 777 106 754 q 221 804 172 800 l 288 804 l 272 626 q 319 626 301 626 q 351 625 336 625 q 384 625 367 625 q 431 626 401 625 q 514 615 482 626 q 563 583 546 603 q 587 538 581 563 q 593 486 593 513 l 557 93 q 515 23 542 44 q 451 0 488 1 l 368 0 l 414 526 l 271 526 l 222 0 l 28 0 l 92 704 l 92 704 z "},"i":{"ha":269,"x_min":28,"x_max":329,"o":"m 276 703 l 276 703 l 94 703 l 107 844 l 329 844 l 283 776 l 276 703 m 28 0 l 28 0 l 90 625 l 268 625 l 207 0 l 28 0 z "},"j":{"ha":300,"x_min":-254,"x_max":326,"o":"m 121 625 l 294 625 l 213 -203 l -254 -203 l -203 -108 l 47 -108 l 121 625 m 128 700 l 114 836 l 326 836 l 310 769 l 303 700 l 128 700 z "},"k":{"ha":597,"x_min":25,"x_max":604,"o":"m 99 714 q 142 784 113 760 q 221 804 171 808 l 293 804 l 256 400 l 414 626 l 597 626 l 446 404 l 604 0 l 419 0 l 331 233 l 228 83 l 221 0 l 25 0 l 99 714 l 99 714 z "},"l":{"ha":278,"x_min":28,"x_max":294,"o":"m 100 714 q 226 807 117 793 l 294 807 l 257 401 l 231 85 l 221 0 l 28 0 l 100 714 l 100 714 z "},"m":{"ha":792,"x_min":26,"x_max":779,"o":"m 276 625 l 346 625 l 568 625 l 568 624 q 594 624 582 624 q 617 625 606 625 q 700 613 668 625 q 749 582 732 601 q 773 537 767 563 q 779 485 779 511 l 738 93 q 689 22 722 44 q 607 0 656 0 l 549 0 l 600 526 l 518 526 l 464 0 l 281 0 l 336 526 l 275 526 l 219 0 l 26 0 l 92 625 l 276 625 z "},"n":{"ha":635,"x_min":25,"x_max":626,"o":"m 282 629 q 332 629 311 629 q 373 629 353 629 q 415 629 393 629 q 465 629 436 629 q 549 617 517 629 q 597 585 581 606 q 620 540 614 565 q 626 489 626 515 l 583 100 q 532 23 569 47 q 446 -4 494 -1 l 392 1 l 447 529 l 278 529 l 219 1 l 25 1 l 97 629 l 282 629 z "},"o":{"ha":614,"x_min":38,"x_max":603,"o":"m 75 490 q 224 628 100 628 q 332 627 278 628 q 440 628 386 626 q 525 616 493 628 q 574 584 557 604 q 597 539 590 564 q 603 488 603 514 l 568 165 q 544 79 561 111 q 503 30 528 47 q 447 6 478 13 q 385 -3 417 0 l 181 -1 q 73 35 106 0 q 38 129 40 69 l 75 490 m 422 531 l 260 531 l 215 86 l 378 86 l 422 531 z "},"p":{"ha":594,"x_min":7,"x_max":575,"o":"m 276 626 q 322 626 306 626 q 353 625 339 625 q 383 625 367 625 q 428 625 400 625 q 507 615 478 626 q 551 583 536 603 q 571 539 567 564 q 575 489 575 514 l 543 178 q 520 96 536 126 q 480 49 504 65 q 426 26 456 32 q 365 18 397 19 l 207 18 l 185 -212 l 7 -212 q 28 4 18 -97 q 50 205 39 106 q 72 407 61 304 q 93 626 82 510 l 276 626 m 408 533 l 268 531 l 219 103 l 358 104 l 408 533 z "},"q":{"ha":590,"x_min":39,"x_max":589,"o":"m 589 631 l 515 -204 l 340 -204 l 358 25 l 189 25 q 129 33 157 26 q 81 55 101 39 q 49 101 60 71 q 43 183 39 132 l 74 493 q 90 543 79 518 q 120 588 100 568 q 173 618 140 607 q 256 628 206 629 q 300 628 283 628 q 331 628 317 628 q 362 630 346 629 q 406 631 378 631 l 589 631 m 213 107 l 361 107 l 406 533 l 254 533 l 213 107 z "},"r":{"ha":388,"x_min":25,"x_max":431,"o":"m 88 626 l 88 626 l 431 626 l 358 526 l 271 526 l 219 0 l 25 0 l 88 626 l 88 626 z "},"s":{"ha":604,"x_min":29,"x_max":633,"o":"m 215 215 l 207 92 l 365 92 l 378 258 l 47 318 l 64 489 q 208 625 88 625 l 633 625 l 589 556 l 575 419 l 393 419 l 404 526 l 246 526 l 233 413 l 389 381 l 568 343 l 547 139 q 526 60 542 86 q 489 22 510 33 q 444 9 468 10 q 400 7 421 8 l 147 7 q 87 17 110 7 q 51 42 64 26 q 33 77 38 57 q 31 118 29 97 l 38 215 l 215 215 z "},"t":{"ha":371,"x_min":36,"x_max":397,"o":"m 132 801 l 132 801 l 317 801 l 300 626 l 397 626 l 358 535 l 292 535 l 281 400 l 253 85 l 283 0 l 51 0 l 103 535 l 49 535 l 36 626 l 111 626 l 132 801 l 132 801 z "},"u":{"ha":607,"x_min":33,"x_max":611,"o":"m 74 538 q 199 628 97 635 l 265 628 l 211 88 l 375 88 l 426 628 l 611 628 l 565 167 q 541 81 558 113 q 499 33 524 50 q 443 9 474 15 q 381 0 413 3 l 176 0 q 69 36 101 1 q 33 131 36 71 l 74 538 l 74 538 z "},"v":{"ha":608,"x_min":46,"x_max":608,"o":"m 76 543 q 200 626 97 625 l 264 626 l 231 251 l 376 86 l 424 626 l 608 626 l 563 138 q 540 57 557 85 q 499 17 524 29 q 445 3 475 6 q 383 -1 415 1 l 253 -1 l 46 221 l 76 543 l 76 543 z "},"w":{"ha":740,"x_min":31,"x_max":751,"o":"m 79 544 q 122 606 90 586 q 203 626 153 625 l 265 626 l 208 88 l 264 88 l 325 628 l 510 628 l 447 88 l 507 88 l 568 626 l 751 626 l 686 88 l 722 1 l 439 1 l 439 0 l 256 0 l 256 1 l 174 1 q 66 28 99 3 q 31 113 33 54 l 79 544 l 79 544 z "},"x":{"ha":554,"x_min":25,"x_max":551,"o":"m 61 390 l 85 622 l 257 622 l 232 419 l 261 400 l 393 625 l 551 625 l 383 340 l 524 233 l 500 0 l 329 0 l 353 203 l 318 226 l 188 0 l 25 0 l 203 301 l 61 390 l 61 390 l 61 390 z "},"y":{"ha":511,"x_min":56,"x_max":600,"o":"m 78 546 q 193 625 94 621 l 260 625 l 233 368 l 349 210 l 379 540 l 381 567 l 386 626 l 600 626 l 557 564 l 531 283 l 486 -206 l 310 -206 l 342 124 l 253 124 l 56 339 l 78 546 l 78 546 z "},"z":{"ha":547,"x_min":40,"x_max":579,"o":"m 40 83 l 354 546 l 128 546 l 114 628 l 579 628 l 543 551 l 544 550 l 542 547 l 542 546 l 542 546 l 243 83 l 481 83 l 472 0 l 57 0 l 40 83 l 40 83 l 40 83 z "},"{":{"ha":289,"x_min":0,"x_max":0,"o":""},"|":{"ha":213,"x_min":0,"x_max":0,"o":""},"}":{"ha":289,"x_min":0,"x_max":0,"o":""},"~":{"ha":578,"x_min":0,"x_max":0,"o":""},"¤":{"ha":547,"x_min":0,"x_max":0,"o":""},"¦":{"ha":206,"x_min":0,"x_max":0,"o":""},"§":{"ha":560,"x_min":0,"x_max":0,"o":""},"¨":{"ha":257,"x_min":0,"x_max":0,"o":""},"©":{"ha":739,"x_min":0,"x_max":0,"o":""},"«":{"ha":514,"x_min":0,"x_max":0,"o":""},"¬":{"ha":554,"x_min":0,"x_max":0,"o":""},"®":{"ha":489,"x_min":0,"x_max":0,"o":""},"°":{"ha":294,"x_min":0,"x_max":0,"o":""},"±":{"ha":571,"x_min":0,"x_max":0,"o":""},"´":{"ha":257,"x_min":0,"x_max":0,"o":""},"µ":{"ha":560,"x_min":0,"x_max":0,"o":""},"¶":{"ha":560,"x_min":0,"x_max":0,"o":""},"·":{"ha":274,"x_min":0,"x_max":0,"o":""},"¸":{"ha":257,"x_min":0,"x_max":0,"o":""},"»":{"ha":408,"x_min":0,"x_max":0,"o":""},"÷":{"ha":571,"x_min":0,"x_max":0,"o":""},"–":{"ha":461,"x_min":0,"x_max":0,"o":""},"—":{"ha":1000,"x_min":0,"x_max":0,"o":""},"‚":{"ha":343,"x_min":0,"x_max":0,"o":""},"„":{"ha":514,"x_min":0,"x_max":0,"o":""},"†":{"ha":547,"x_min":0,"x_max":0,"o":""},"‡":{"ha":547,"x_min":0,"x_max":0,"o":""},"•":{"ha":460,"x_min":71,"x_max":383,"o":"m 71 329 q 83 389 71 361 q 117 438 96 417 q 166 471 138 458 q 226 483 194 483 q 287 471 258 483 q 337 438 315 458 q 371 389 358 417 q 383 329 383 361 q 371 269 383 297 q 337 221 358 242 q 287 188 315 200 q 226 175 258 175 q 166 188 194 175 q 117 221 138 200 q 83 269 96 242 q 71 329 71 297 z "},"…":{"ha":665,"x_min":0,"x_max":0,"o":""},"‰":{"ha":1151,"x_min":0,"x_max":0,"o":""},"‹":{"ha":254,"x_min":0,"x_max":0,"o":""},"›":{"ha":254,"x_min":0,"x_max":0,"o":""},"€":{"ha":564,"x_min":0,"x_max":0,"o":""},"™":{"ha":978,"x_min":49,"x_max":925,"o":"m 244 276 l 333 276 q 369 278 350 276 q 407 286 389 279 q 417 309 413 299 q 422 335 422 319 q 417 358 422 349 q 401 378 411 367 q 367 391 388 389 q 328 393 346 393 l 244 393 l 244 276 m 244 465 l 322 465 q 344 465 333 465 q 363 467 354 465 q 380 470 374 467 q 394 478 386 474 q 407 511 407 493 q 403 533 407 522 q 394 550 400 543 q 380 559 386 557 q 363 561 374 561 q 337 564 349 564 q 317 564 325 564 l 244 564 l 244 465 m 622 276 l 810 276 l 810 207 l 525 207 l 525 217 q 531 256 525 240 q 550 286 538 271 q 568 310 560 300 q 583 335 576 319 q 612 358 597 349 q 640 382 626 368 q 678 413 660 397 q 711 447 696 428 q 731 477 722 463 q 740 511 740 492 q 735 538 740 528 q 721 558 729 547 q 674 574 701 574 q 646 570 656 574 q 622 558 636 567 q 610 530 613 547 q 607 501 607 513 l 607 492 l 533 496 l 533 507 q 544 560 535 535 q 581 601 553 585 q 624 627 600 619 q 674 635 649 635 q 726 626 701 635 q 775 599 751 618 q 810 511 810 563 q 802 465 810 486 q 781 422 794 443 q 761 401 772 414 q 733 378 750 389 q 702 347 718 363 q 671 315 686 331 q 642 295 656 307 q 622 276 629 283 m 521 811 l 521 789 l 453 789 l 453 811 l 121 811 l 121 779 l 96 779 l 96 450 l 117 450 l 117 389 l 96 389 l 96 60 l 121 60 l 121 31 l 453 31 l 453 67 l 521 67 l 521 31 l 856 31 l 856 60 l 886 60 l 886 389 l 860 389 l 860 450 l 886 450 l 886 779 l 856 779 l 856 811 l 521 811 m 453 849 l 521 849 l 521 819 l 856 819 l 856 838 l 915 838 l 915 779 l 896 779 l 896 450 l 925 450 l 925 389 l 896 389 l 896 60 l 915 60 l 915 0 l 856 0 l 856 19 l 521 19 l 521 0 l 453 0 l 453 19 l 121 19 l 121 0 l 57 0 l 57 60 l 79 60 l 79 389 l 49 389 l 49 450 l 79 450 l 79 779 l 57 779 l 57 838 l 121 838 l 121 819 l 453 819 l 453 849 m 431 436 q 458 419 447 425 q 476 401 469 413 q 492 369 488 386 q 496 335 496 353 q 479 267 496 293 q 456 238 469 251 q 426 218 442 225 q 381 208 406 210 q 338 207 357 207 l 165 207 l 165 635 l 333 635 q 393 626 365 635 q 442 599 421 618 q 469 560 461 579 q 476 515 476 542 q 474 488 476 500 q 460 465 472 475 q 447 448 454 454 q 431 436 439 442 z "}," ":{"ha":274,"x_min":0,"x_max":0,"o":""},"­":{"ha":342,"x_min":0,"x_max":0,"o":""},"¡":{"ha":292,"x_min":0,"x_max":0,"o":""},"¢":{"ha":560,"x_min":0,"x_max":0,"o":""},"£":{"ha":560,"x_min":0,"x_max":0,"o":""},"¥":{"ha":560,"x_min":0,"x_max":0,"o":""},"ª":{"ha":333,"x_min":0,"x_max":0,"o":""},"¯":{"ha":257,"x_min":0,"x_max":0,"o":""},"²":{"ha":356,"x_min":0,"x_max":0,"o":""},"³":{"ha":356,"x_min":0,"x_max":0,"o":""},"¹":{"ha":356,"x_min":0,"x_max":0,"o":""},"º":{"ha":333,"x_min":0,"x_max":0,"o":""},"¼":{"ha":744,"x_min":0,"x_max":0,"o":""},"½":{"ha":744,"x_min":0,"x_max":0,"o":""},"¾":{"ha":744,"x_min":0,"x_max":0,"o":""},"¿":{"ha":401,"x_min":0,"x_max":0,"o":""},"ø":{"ha":553,"x_min":0,"x_max":0,"o":""},"Œ":{"ha":988,"x_min":0,"x_max":0,"o":""},"œ":{"ha":943,"x_min":0,"x_max":0,"o":""},"ƒ":{"ha":553,"x_min":0,"x_max":0,"o":""},"ˆ":{"ha":294,"x_min":0,"x_max":0,"o":""},"˜":{"ha":257,"x_min":0,"x_max":0,"o":""},"̀":{"ha":0,"x_min":0,"x_max":0,"o":""},"́":{"ha":0,"x_min":0,"x_max":0,"o":""},"̃":{"ha":0,"x_min":0,"x_max":0,"o":""},"̣":{"ha":0,"x_min":0,"x_max":0,"o":""},"฀":{"ha":594,"x_min":0,"x_max":0,"o":""},"ก":{"ha":632,"x_min":26,"x_max":625,"o":"m 57 628 l 553 628 q 606 600 586 628 q 618 517 625 572 l 571 100 l 561 0 l 421 0 q 365 85 350 4 l 408 458 l 442 499 l 321 499 l 271 431 l 231 101 l 218 0 l 26 0 l 71 394 l 149 499 l 81 499 l 57 628 z "},"ข":{"ha":642,"x_min":36,"x_max":642,"o":"m 89 507 l 138 628 l 361 628 l 336 407 q 294 384 313 404 q 265 319 276 364 l 246 131 l 407 131 l 389 156 l 429 526 q 456 599 435 571 q 510 628 476 626 l 642 628 l 581 85 l 601 0 l 136 0 q 57 40 78 6 q 43 133 36 75 l 65 336 q 91 416 72 378 q 140 465 110 454 l 146 508 l 89 507 z "},"ฃ":{"ha":646,"x_min":39,"x_max":644,"o":"m 93 504 l 142 628 l 229 554 l 364 628 l 340 407 q 297 383 315 404 q 269 318 279 363 l 249 131 l 414 129 l 392 153 l 432 522 q 460 598 439 568 q 513 628 481 628 l 644 628 l 589 85 l 618 0 l 139 0 q 60 40 81 6 q 46 133 39 75 l 68 336 q 94 415 75 376 q 144 464 114 453 l 93 504 z "},"ค":{"ha":638,"x_min":26,"x_max":676,"o":"m 172 628 l 676 628 l 622 539 l 571 82 q 544 23 567 46 q 501 0 521 0 l 358 0 l 414 467 l 458 501 l 283 501 l 271 385 l 350 385 l 338 264 l 257 264 l 236 81 l 225 0 l 26 0 l 89 533 q 116 598 96 574 q 172 628 136 622 z "},"ฅ":{"ha":638,"x_min":26,"x_max":672,"o":"m 172 628 l 296 628 l 351 579 l 469 628 l 672 628 l 621 531 l 571 82 q 544 23 567 46 q 501 0 521 0 l 358 0 l 415 461 l 458 497 l 339 458 l 283 496 l 271 385 l 350 385 l 338 264 l 257 264 l 236 81 l 226 0 l 26 0 l 89 531 q 116 597 96 571 q 172 628 136 622 z "},"ฆ":{"ha":639,"x_min":0,"x_max":639,"o":"m 579 100 q 565 47 575 67 q 543 16 556 26 q 517 3 531 6 q 492 0 503 0 l 397 0 l 240 67 l 232 0 l 0 0 l 38 74 l 58 256 l 67 335 q 93 415 74 376 q 143 464 113 453 l 92 506 l 140 631 l 228 557 l 363 631 l 338 406 q 294 383 313 403 q 267 318 276 363 l 260 256 l 258 256 l 256 225 l 382 168 l 424 164 l 386 196 l 424 525 q 428 553 425 536 q 440 588 432 571 q 463 616 449 604 q 497 628 476 628 l 639 628 l 579 100 l 579 100 z "},"ง":{"ha":585,"x_min":49,"x_max":585,"o":"m 368 628 l 585 628 l 528 94 q 513 47 524 65 q 488 17 503 28 q 456 3 474 7 q 419 0 438 0 l 93 0 l 49 504 l 249 504 l 283 131 l 354 132 l 332 156 l 368 472 l 401 501 l 325 503 l 368 628 z "},"จ":{"ha":624,"x_min":58,"x_max":649,"o":"m 74 510 q 111 594 79 561 q 179 628 143 628 l 649 628 l 608 538 l 563 119 q 476 0 550 0 l 346 0 l 369 218 l 247 218 l 265 356 l 385 356 l 397 468 l 432 497 l 279 497 l 265 392 l 58 392 l 74 510 l 74 510 z "},"ฉ":{"ha":597,"x_min":19,"x_max":619,"o":"m 44 508 q 58 556 47 535 q 83 594 68 578 q 115 619 97 610 q 150 628 132 628 l 619 628 l 579 539 l 529 92 l 554 0 l 317 0 l 317 1 l 315 1 l 322 65 l 194 0 l 26 0 l 58 282 l 19 282 l 51 397 l 274 397 l 250 194 l 228 167 l 249 167 l 342 222 l 369 469 l 403 499 l 250 497 l 243 443 l 36 443 l 44 508 l 44 508 z "},"ช":{"ha":640,"x_min":36,"x_max":643,"o":"m 90 507 l 139 628 l 363 628 l 338 407 q 295 384 313 404 q 267 319 278 364 l 247 131 l 408 131 l 389 149 l 410 340 l 350 340 l 365 476 l 457 628 l 643 628 l 533 453 q 563 438 549 449 q 588 410 578 426 q 604 375 599 394 q 608 336 610 356 l 579 69 l 604 0 l 136 0 q 57 40 78 6 q 43 133 36 75 l 67 336 q 92 416 74 378 q 142 465 111 454 l 147 508 l 90 507 z "},"ซ":{"ha":642,"x_min":35,"x_max":642,"o":"m 89 507 l 138 631 l 210 575 l 361 631 l 336 407 q 293 384 311 404 q 265 319 275 364 l 246 131 l 411 131 l 388 149 l 408 340 l 349 340 l 364 476 l 456 628 l 642 628 l 532 453 q 562 438 547 449 q 587 410 576 426 q 602 375 597 394 q 606 336 607 356 l 579 72 l 603 0 l 135 0 q 56 40 76 6 q 42 133 35 75 l 65 336 q 91 416 72 378 q 140 465 110 454 l 89 507 z "},"ฌ":{"ha":964,"x_min":28,"x_max":964,"o":"m 63 628 l 556 628 q 608 600 589 628 q 619 517 626 572 l 586 221 l 706 165 l 728 165 l 711 193 l 749 525 q 753 553 750 536 q 765 588 757 571 q 788 616 774 604 q 822 628 801 628 l 964 628 l 904 99 q 890 46 900 65 q 868 16 881 26 q 842 3 856 6 q 817 0 828 0 l 722 0 l 565 64 l 565 67 l 553 0 l 357 0 l 411 458 l 443 499 l 325 499 l 272 432 l 236 119 l 299 119 l 251 0 l 28 0 l 72 394 l 176 499 l 89 499 l 63 628 z "},"ญ":{"ha":965,"x_min":26,"x_max":964,"o":"m 50 628 l 554 628 q 606 601 586 628 q 618 517 625 574 l 578 167 l 575 131 l 735 131 l 711 167 l 750 524 q 778 598 757 568 q 832 628 799 628 l 964 628 l 907 126 l 900 85 l 933 0 l 764 0 l 444 0 q 380 28 401 1 q 369 117 358 54 q 389 288 379 203 q 410 458 399 372 l 442 499 l 321 499 l 271 432 l 233 119 l 297 119 l 250 0 l 26 0 l 72 396 l 149 499 l 83 499 l 50 628 m 356 -203 l 846 -203 l 897 -103 l 568 -103 l 572 -50 l 374 -50 l 356 -203 z "},"ฎ":{"ha":644,"x_min":4,"x_max":638,"o":"m 106 -49 l 251 -49 l 360 -71 l 422 460 l 456 499 l 292 499 l 247 121 l 233 0 l 19 0 l 4 119 l 53 119 l 101 542 l 76 628 l 554 628 q 613 600 588 628 q 632 517 638 572 l 558 -135 q 553 -167 557 -150 q 540 -200 549 -185 q 517 -225 531 -215 q 482 -235 503 -235 l 342 -235 l 346 -190 l 225 -165 l 24 -165 q 33 -126 25 -146 q 53 -89 42 -106 q 78 -61 64 -72 q 106 -49 92 -50 z "},"ฏ":{"ha":633,"x_min":-10,"x_max":625,"o":"m 56 628 l 544 628 q 601 601 576 628 q 618 518 625 574 l 546 -136 q 539 -167 543 -150 q 526 -200 535 -185 q 503 -226 517 -215 q 468 -236 489 -236 l 329 -235 l 332 -210 l 281 -210 l 200 -151 l 149 -206 l -1 -206 q 8 -166 0 -186 q 27 -129 15 -146 q 53 -101 39 -112 q 81 -89 67 -90 l 149 -89 l 226 -35 l 286 -89 l 346 -90 l 410 460 l 442 500 l 278 500 l 235 119 l 219 0 l 6 0 l -10 118 l 40 118 l 90 554 l 56 628 z "},"ฐ":{"ha":625,"x_min":54,"x_max":663,"o":"m 75 507 q 113 593 82 558 q 181 628 144 628 l 424 628 l 467 715 l 663 715 l 622 629 l 561 121 q 533 31 554 63 q 476 0 513 0 l 349 0 l 376 250 l 275 250 l 293 386 l 392 386 l 401 474 l 435 504 l 282 504 l 267 388 l 60 388 l 75 507 m 543 -56 l 529 -175 q 524 -206 528 -189 q 510 -239 519 -224 q 488 -265 501 -254 q 453 -275 474 -275 l 314 -275 l 317 -249 l 292 -249 l 232 -190 l 181 -244 l 54 -244 q 64 -205 56 -225 q 83 -169 72 -185 q 108 -142 94 -153 q 136 -129 122 -131 l 181 -129 l 258 -75 l 297 -129 l 331 -129 l 339 -56 l 543 -56 z "},"ฑ":{"ha":640,"x_min":29,"x_max":638,"o":"m 576 85 q 492 0 556 -3 l 364 0 l 408 394 l 432 424 l 410 422 l 260 254 l 243 106 q 215 31 236 61 q 163 0 194 1 l 29 0 l 69 347 q 95 426 76 388 q 146 475 114 464 l 94 518 l 143 632 l 231 558 l 365 632 l 351 518 l 468 628 l 638 628 l 576 85 z "},"ฒ":{"ha":968,"x_min":32,"x_max":965,"o":"m 172 628 l 294 628 l 351 554 l 447 628 l 681 628 l 624 529 l 589 226 l 708 172 l 729 171 l 713 200 l 750 525 q 755 553 751 536 q 767 588 758 571 q 789 616 775 604 q 824 628 803 628 l 965 628 l 906 100 q 892 47 901 67 q 869 17 882 28 q 843 3 857 7 q 818 0 829 0 l 724 0 l 569 67 q 540 18 561 36 q 503 0 519 0 l 360 0 l 414 471 l 457 506 l 417 506 l 339 439 l 282 506 l 239 132 l 335 133 l 272 0 l 85 0 q 44 26 57 0 q 35 78 32 51 l 88 535 q 115 599 94 575 q 172 628 135 622 z "},"ณ":{"ha":964,"x_min":25,"x_max":964,"o":"m 61 628 l 553 628 q 606 600 586 628 q 618 517 625 572 q 599 357 607 436 q 581 199 590 278 l 558 169 l 724 274 l 751 524 q 778 598 757 568 q 832 628 799 628 l 964 628 l 903 79 l 931 0 l 690 0 l 703 115 l 525 0 l 449 0 q 381 34 399 -3 q 372 142 363 71 q 390 301 382 221 q 408 460 399 381 l 440 499 l 278 499 l 233 121 l 296 119 l 249 0 l 25 0 l 88 538 l 61 628 z "},"ด":{"ha":638,"x_min":32,"x_max":682,"o":"m 172 628 l 294 628 l 447 628 l 682 628 l 624 529 l 574 83 q 546 23 569 46 q 503 0 522 0 l 360 0 l 414 465 l 456 499 l 283 499 l 240 129 l 335 129 l 274 0 l 86 0 q 45 24 58 0 q 36 74 32 49 l 88 533 q 172 628 103 618 z "},"ต":{"ha":638,"x_min":32,"x_max":682,"o":"m 172 628 l 294 628 l 353 554 l 447 628 l 682 628 l 647 568 l 624 529 l 574 82 q 546 23 569 46 q 503 0 522 0 l 360 0 l 414 465 l 457 500 l 417 500 l 339 433 l 283 499 l 242 131 l 336 131 l 274 0 l 86 0 q 45 24 58 0 q 36 74 32 49 l 89 533 q 172 628 101 618 z "},"ถ":{"ha":633,"x_min":26,"x_max":625,"o":"m 43 628 l 554 628 q 606 600 588 628 q 618 517 625 572 l 572 101 q 566 70 571 88 q 552 37 561 53 q 529 10 543 21 q 494 0 515 0 l 356 0 l 410 458 l 442 499 l 278 499 l 238 131 l 328 131 l 250 0 l 26 0 l 88 533 l 43 628 z "},"ท":{"ha":635,"x_min":26,"x_max":624,"o":"m 572 83 q 489 0 551 -3 l 360 0 l 410 431 l 432 460 l 411 458 l 244 144 l 239 104 q 213 30 235 60 q 158 0 192 0 l 26 0 l 82 501 l 86 547 l 50 626 l 301 626 l 281 440 l 382 628 l 547 626 q 603 599 583 624 q 622 522 624 575 l 572 83 z "},"ธ":{"ha":638,"x_min":26,"x_max":676,"o":"m 622 528 l 563 417 l 407 417 l 417 500 l 301 500 l 290 404 l 556 349 q 581 338 571 346 q 594 310 592 329 q 594 290 597 301 l 574 103 q 542 31 567 61 q 468 0 517 0 l 26 0 l 54 256 l 276 256 l 263 131 l 401 131 l 376 167 l 388 254 l 63 331 l 83 507 q 112 596 88 564 q 179 628 136 628 l 676 628 l 622 528 z "},"น":{"ha":633,"x_min":22,"x_max":633,"o":"m 88 544 l 58 628 l 300 628 l 250 196 l 228 167 l 400 313 l 421 524 q 449 598 428 568 q 501 628 469 628 l 633 628 l 572 76 l 600 0 l 360 0 l 378 154 l 196 0 l 118 0 q 42 140 22 -4 l 88 544 z "},"บ":{"ha":635,"x_min":29,"x_max":635,"o":"m 88 536 l 63 628 l 300 628 l 249 167 l 244 131 l 406 131 l 383 164 l 421 522 q 449 597 428 567 q 503 628 469 626 l 635 628 l 578 126 l 571 85 l 606 0 l 435 0 l 115 0 q 51 28 72 1 q 40 117 29 54 l 88 536 z "},"ป":{"ha":633,"x_min":29,"x_max":667,"o":"m 88 536 l 64 628 l 300 628 l 249 167 l 246 131 l 408 131 l 383 163 l 453 814 q 481 888 460 858 q 535 918 501 918 l 667 918 l 578 126 l 576 85 l 606 0 l 435 0 l 115 0 q 51 28 72 1 q 40 117 29 54 l 88 536 z "},"ผ":{"ha":774,"x_min":28,"x_max":774,"o":"m 106 0 q 36 82 28 -3 l 78 444 l 86 528 l 100 628 l 346 628 l 281 500 l 271 425 l 240 131 l 322 131 l 297 165 l 339 528 q 352 578 343 558 q 373 609 361 597 q 397 625 385 621 q 421 628 410 629 l 533 628 l 476 131 l 560 131 l 536 164 l 576 526 q 610 608 583 586 q 658 628 636 631 l 774 628 l 707 81 l 753 0 l 106 0 z "},"ฝ":{"ha":774,"x_min":28,"x_max":806,"o":"m 103 0 q 33 82 28 -3 l 75 444 l 85 528 l 97 628 l 343 628 l 278 500 l 269 425 l 238 131 l 321 131 l 296 164 l 338 528 q 349 578 340 558 q 370 609 358 597 q 394 625 382 621 q 418 628 407 629 l 531 628 l 475 131 l 557 131 l 535 163 l 608 824 q 641 905 615 883 q 689 925 667 926 l 806 924 l 706 81 l 750 0 l 103 0 z "},"พ":{"ha":778,"x_min":33,"x_max":778,"o":"m 103 0 q 38 83 33 13 l 65 300 l 92 528 l 49 628 l 300 628 l 290 551 l 261 300 l 240 131 l 319 131 l 301 164 l 344 528 q 377 610 351 588 q 425 629 403 632 l 538 628 l 482 131 l 563 131 l 540 163 l 582 526 q 615 609 589 588 q 663 628 640 631 l 778 628 l 718 100 l 746 0 l 103 0 z "},"ฟ":{"ha":775,"x_min":33,"x_max":813,"o":"m 103 0 q 38 83 33 13 l 65 300 l 92 528 l 49 628 l 300 628 l 290 551 l 263 300 l 240 131 l 319 131 l 301 164 l 344 526 q 377 608 351 586 q 425 628 403 631 l 538 628 l 482 131 l 563 131 l 540 163 l 615 821 q 628 870 619 850 q 649 902 638 890 q 674 919 661 914 q 697 922 686 924 l 813 921 l 719 100 l 746 0 l 103 0 z "},"ภ":{"ha":642,"x_min":-17,"x_max":633,"o":"m 64 628 l 561 628 q 614 600 594 628 q 626 517 633 572 l 581 100 q 574 69 579 86 q 560 36 569 51 q 538 10 551 21 q 503 0 524 0 l 364 0 l 417 457 l 450 499 l 350 500 l 276 421 l 242 119 l 228 0 l -17 0 l 43 72 l 85 426 l 153 500 l 89 500 l 64 628 z "},"ม":{"ha":640,"x_min":-15,"x_max":640,"o":"m 581 100 q 567 47 576 67 q 544 17 557 28 q 518 3 532 7 q 493 0 504 0 l 399 0 l 249 138 l 232 0 l -15 0 l 39 71 l 97 564 l 64 628 l 304 628 l 268 296 l 411 181 l 390 214 l 425 525 q 430 553 426 536 q 442 588 433 571 q 464 616 450 604 q 499 628 478 628 l 640 628 l 581 100 l 581 100 z "},"ย":{"ha":626,"x_min":29,"x_max":626,"o":"m 271 403 l 401 464 l 408 524 q 440 606 415 585 q 486 628 464 628 l 626 628 l 617 547 l 564 76 l 599 0 l 365 0 l 110 0 q 54 34 79 3 q 33 110 29 65 l 46 221 q 96 316 54 288 q 190 351 138 344 l 63 354 l 82 511 l 94 628 l 379 628 l 342 515 l 285 515 l 271 403 m 393 129 l 368 167 l 386 313 q 331 280 354 292 q 290 256 307 268 q 263 230 274 244 q 247 190 251 215 l 244 167 l 240 129 l 393 129 z "},"ร":{"ha":642,"x_min":24,"x_max":671,"o":"m 625 529 l 571 417 l 410 418 l 419 501 l 289 501 l 278 406 l 558 350 q 584 339 574 347 q 597 311 594 331 q 598 301 597 306 q 597 290 599 297 l 578 103 q 569 64 575 82 q 552 31 563 46 q 526 8 542 17 q 485 0 510 0 l 24 0 l 92 131 l 414 131 l 381 163 l 390 256 l 65 332 l 86 507 q 115 597 90 565 q 182 628 139 628 l 671 628 l 625 529 z "},"ฤ":{"ha":635,"x_min":26,"x_max":625,"o":"m 42 628 l 554 628 q 606 600 586 628 q 618 517 625 572 l 553 -76 q 547 -109 551 -92 q 533 -142 542 -126 q 511 -167 525 -157 q 476 -178 497 -178 l 336 -176 l 410 460 l 442 499 l 278 500 l 236 126 l 328 126 l 250 0 l 26 0 l 88 535 l 42 628 z "},"ล":{"ha":631,"x_min":26,"x_max":668,"o":"m 618 540 l 568 100 q 563 65 565 82 q 553 33 561 47 q 529 9 544 18 q 488 0 514 0 l 353 0 l 386 283 l 251 249 l 232 94 l 315 94 l 271 0 l 26 0 l 54 229 q 73 292 58 267 q 105 331 88 317 q 141 353 122 346 q 172 363 160 360 l 400 415 l 407 460 l 439 500 l 278 500 l 269 413 l 74 413 l 81 475 q 92 544 85 515 q 113 592 99 574 q 153 619 128 611 q 219 628 179 628 l 417 628 l 668 628 l 618 540 z "},"ฦ":{"ha":642,"x_min":-18,"x_max":633,"o":"m 64 628 l 561 628 q 614 601 594 628 q 626 517 633 574 l 558 -75 q 553 -106 557 -89 q 540 -139 549 -124 q 517 -165 531 -154 q 482 -175 503 -175 l 343 -175 l 417 460 l 449 500 l 286 500 l 242 119 l 228 0 l -18 0 l 42 74 l 97 550 l 64 628 z "},"ว":{"ha":635,"x_min":25,"x_max":658,"o":"m 83 507 q 122 593 90 558 q 189 628 153 628 l 658 628 l 619 538 l 572 121 q 533 31 565 61 q 464 0 500 0 l 25 0 l 78 131 l 371 131 l 411 478 l 444 507 l 292 507 l 271 342 l 65 342 l 71 401 l 83 507 l 83 507 z "},"ศ":{"ha":631,"x_min":25,"x_max":685,"o":"m 172 628 l 294 628 l 447 628 l 490 708 l 685 708 l 631 619 l 574 83 q 546 23 569 46 q 503 0 522 0 l 360 0 l 414 468 l 457 503 l 283 503 l 269 385 l 349 385 l 336 264 l 256 264 l 239 129 l 225 0 l 25 0 l 88 535 q 115 599 94 575 q 172 628 136 624 z "},"ษ":{"ha":636,"x_min":29,"x_max":640,"o":"m 89 544 l 58 628 l 300 628 l 244 131 l 407 131 l 383 168 l 397 297 l 328 297 l 342 422 l 410 422 l 421 524 q 449 598 428 568 q 503 628 469 628 l 635 628 l 611 422 l 640 422 l 626 297 l 597 297 l 574 83 l 617 0 l 107 0 q 36 88 29 -6 l 63 319 l 89 544 z "},"ส":{"ha":624,"x_min":25,"x_max":674,"o":"m 624 622 l 567 100 q 562 65 564 82 q 551 33 560 47 q 528 9 543 18 q 486 0 513 0 l 351 0 l 385 283 l 247 249 l 231 94 l 313 94 l 269 0 l 25 0 l 53 229 q 72 292 57 267 q 105 331 86 317 q 142 353 124 346 q 171 363 160 360 l 400 415 l 406 456 l 438 496 l 276 496 l 265 413 l 72 413 l 79 471 q 89 541 83 511 q 108 590 94 571 q 145 619 121 610 q 210 628 169 628 l 415 628 l 469 714 l 674 714 l 624 622 z "},"ห":{"ha":642,"x_min":26,"x_max":676,"o":"m 572 85 q 489 0 551 -3 l 361 0 l 403 383 l 254 240 l 228 0 l 26 0 l 89 553 l 58 628 l 301 628 l 285 472 l 465 628 l 676 628 l 526 500 l 615 457 l 572 85 z "},"ฬ":{"ha":778,"x_min":33,"x_max":840,"o":"m 103 0 q 38 82 33 13 l 65 300 l 96 549 l 61 628 l 300 628 l 290 550 l 263 300 l 246 165 l 242 129 l 322 129 l 300 163 l 344 526 q 377 608 351 586 q 425 628 403 631 l 538 628 l 485 165 l 481 129 l 563 129 l 539 165 l 597 669 l 378 669 q 405 745 385 715 q 468 778 425 775 l 610 778 l 610 779 l 653 881 l 840 881 l 794 775 l 719 100 l 751 0 l 103 0 z "},"อ":{"ha":638,"x_min":32,"x_max":669,"o":"m 601 0 l 104 0 q 48 24 64 -1 q 33 93 32 49 l 67 381 l 339 381 l 301 274 l 254 274 l 242 169 l 238 131 l 400 131 l 375 163 l 410 465 l 454 501 l 279 501 l 269 417 l 68 417 l 76 476 l 81 511 q 101 583 88 558 q 132 617 115 607 q 167 626 149 626 q 201 628 185 626 l 426 628 l 669 628 l 622 546 l 568 88 l 601 0 z "},"ฮ":{"ha":633,"x_min":33,"x_max":681,"o":"m 603 0 l 106 0 q 49 25 65 0 q 35 94 33 50 l 68 381 l 342 381 l 303 274 l 256 274 l 244 171 l 239 131 l 403 131 l 376 164 l 411 463 l 456 499 l 281 499 l 271 414 l 69 414 l 78 474 l 82 508 q 103 580 89 556 q 133 615 117 604 q 168 626 150 625 q 203 628 186 626 l 428 628 l 471 706 l 681 706 l 632 624 l 569 89 l 603 0 z "},"ฯ":{"ha":628,"x_min":53,"x_max":628,"o":"m 81 536 l 92 628 l 293 628 l 272 475 l 269 439 l 429 439 l 407 475 l 414 522 q 442 597 421 567 q 494 628 463 626 l 628 628 q 609 472 617 540 q 594 342 601 403 q 581 219 588 281 q 565 82 574 157 q 538 23 561 46 q 494 0 514 0 l 353 0 l 385 308 l 139 308 q 74 336 96 310 q 64 425 53 363 l 81 536 z "},"ะ":{"ha":433,"x_min":18,"x_max":457,"o":"m 210 171 l 422 231 l 243 44 q 18 58 65 -53 l 194 242 l 210 171 m 244 525 l 457 585 l 278 400 q 53 413 100 303 l 229 597 l 244 525 z "},"ั":{"ha":0,"x_min":-346,"x_max":151,"o":"m -346 765 l -346 765 l -329 918 l -131 918 l -135 865 l 151 865 l 100 765 l -346 765 l -346 765 z "},"า":{"ha":617,"x_min":50,"x_max":644,"o":"m 69 508 q 107 594 75 560 q 175 628 139 628 l 644 628 l 604 538 l 558 119 q 531 30 551 61 q 472 0 510 -1 l 340 0 l 396 478 l 429 508 l 276 508 l 256 340 l 50 340 l 57 400 l 69 508 l 69 508 z "},"ำ":{"ha":625,"x_min":-283,"x_max":654,"o":"m 79 508 l 67 401 l 60 340 l 265 340 l 286 508 l 439 508 l 406 478 l 350 0 l 482 0 q 540 30 519 -1 q 568 119 561 61 l 614 538 l 654 628 l 185 628 q 117 594 149 628 q 79 508 85 560 m -54 738 l -201 738 q -276 807 -283 738 l -272 868 q -249 921 -268 904 q -185 938 -229 938 l -53 938 q 4 917 -15 935 q 21 863 24 899 l 15 804 q -4 758 13 775 q -54 738 -21 740 m -183 797 l -71 797 l -64 874 l -176 874 l -183 797 z "},"ิ":{"ha":0,"x_min":-493,"x_max":36,"o":"m 24 765 l -493 765 l -450 865 l -164 865 l 36 865 l 24 765 l 24 765 l 24 765 z "},"ี":{"ha":0,"x_min":-494,"x_max":42,"o":"m 22 767 l -494 767 l -451 867 l -165 867 l -157 921 l 42 919 l 22 767 l 22 767 l 22 767 z "},"ึ":{"ha":0,"x_min":-487,"x_max":44,"o":"m -17 767 l -487 767 l -444 865 l -183 865 q -165 907 -181 894 q -117 919 -150 919 l -17 919 q 40 863 44 915 l 36 817 q 21 781 33 794 q -17 767 8 768 m -118 815 l -29 815 l -25 868 l -114 868 l -118 815 z "},"ื":{"ha":0,"x_min":-494,"x_max":42,"o":"m 22 767 l -494 767 l -451 867 l -175 867 l -168 921 l -85 921 l -90 864 l -68 865 l -61 921 l 42 921 l 22 767 l 22 767 l 22 767 z "},"ุ":{"ha":0,"x_min":-304,"x_max":-67,"o":"m -281 -149 l -304 -61 l -76 -61 l -94 -257 l -67 -319 l -218 -321 q -279 -294 -258 -319 q -290 -210 -300 -269 l -281 -149 z "},"ู":{"ha":0,"x_min":-428,"x_max":-75,"o":"m -410 -137 l -428 -61 l -257 -61 l -269 -185 l -272 -215 l -219 -215 l -235 -185 l -232 -149 q -212 -87 -228 -111 q -174 -61 -197 -62 l -79 -61 l -96 -219 l -100 -253 l -75 -324 l -199 -324 l -367 -324 q -412 -301 -397 -322 q -421 -226 -428 -279 l -410 -137 z "},"ฺ":{"ha":0,"x_min":-292,"x_max":-58,"o":"m -58 -139 q -92 -196 -58 -171 q -174 -221 -125 -221 q -257 -196 -222 -221 q -292 -139 -292 -171 q -257 -82 -292 -104 q -174 -60 -222 -60 q -92 -82 -125 -60 q -58 -139 -58 -104 z "},"฿":{"ha":571,"x_min":0,"x_max":0,"o":""},"เ":{"ha":318,"x_min":24,"x_max":317,"o":"m 317 628 l 249 68 l 286 0 l 90 0 l 24 0 l 100 628 l 317 628 l 317 628 l 317 628 z "},"แ":{"ha":624,"x_min":25,"x_max":624,"o":"m 317 628 l 250 68 l 288 0 l 92 0 l 25 0 l 100 628 l 317 628 l 317 628 l 317 628 m 624 628 l 557 68 l 594 0 l 399 0 l 332 0 l 407 628 l 624 628 l 624 628 l 624 628 z "},"โ":{"ha":421,"x_min":107,"x_max":736,"o":"m 692 907 l 410 907 l 426 844 q 412 726 419 793 q 395 585 404 658 q 376 435 386 511 q 358 289 367 358 q 343 162 350 219 q 332 67 336 104 l 369 0 l 174 0 l 107 0 l 215 894 l 179 1007 l 736 1007 l 692 907 z "},"ใ":{"ha":414,"x_min":33,"x_max":476,"o":"m 47 874 q 60 923 50 900 q 85 963 71 946 q 118 989 100 979 q 154 999 136 999 l 476 999 l 422 886 l 322 69 l 361 0 l 111 0 l 219 853 l 256 903 l 189 903 l 172 782 l 35 782 l 33 778 l 47 874 l 47 874 z "},"ไ":{"ha":421,"x_min":35,"x_max":499,"o":"m 81 1008 l 499 1008 l 435 894 l 333 67 l 361 0 l 110 0 l 119 76 q 131 172 124 114 q 146 297 138 229 q 163 440 154 365 q 181 588 172 515 q 198 727 190 661 q 213 844 206 793 l 244 908 l 35 908 l 81 1008 z "},"ๅ":{"ha":644,"x_min":74,"x_max":668,"o":"m 93 508 q 106 556 96 533 q 130 594 115 578 q 163 619 144 610 q 199 628 181 628 l 668 629 l 628 539 l 564 -53 q 536 -142 557 -111 q 479 -174 515 -174 l 346 -172 l 419 479 l 453 508 l 300 508 l 279 344 l 74 344 l 81 404 l 93 508 l 93 508 z "},"ๆ":{"ha":631,"x_min":61,"x_max":631,"o":"m 165 628 l 288 628 l 346 554 l 440 628 l 631 628 l 617 529 l 567 82 q 539 23 563 46 q 496 0 515 0 l 354 0 l 407 467 l 450 501 l 410 501 l 332 435 l 276 500 l 260 383 l 61 385 l 82 533 q 165 628 94 618 z "},"็":{"ha":0,"x_min":-378,"x_max":111,"o":"m -29 767 l -121 767 l -164 822 l -236 767 l -378 767 l -358 925 q -253 997 -347 993 l 111 997 l 71 921 l -207 922 l -214 863 l -154 913 l -112 864 l -107 903 l 42 903 l 35 838 q -29 767 24 775 z "},"่":{"ha":0,"x_min":-161,"x_max":64,"o":"m 47 975 l -161 975 l -144 1129 l 64 1129 l 47 975 z "},"้":{"ha":0,"x_min":-281,"x_max":244,"o":"m -253 975 l -253 975 l -240 1096 l -281 1153 l -36 1154 l -42 1074 l 244 1074 l 193 975 l -253 975 l -253 975 z "},"๊":{"ha":0,"x_min":-356,"x_max":206,"o":"m -281 1156 l -189 1156 l -144 1100 l -74 1156 l 69 1156 l 56 1050 l 206 1050 l 171 975 l -106 975 l -99 1032 l -96 1058 l -154 1008 l -197 1058 l -207 975 l -356 975 l -343 1085 q -281 1156 -332 1147 z "},"๋":{"ha":0,"x_min":-225,"x_max":117,"o":"m 35 975 l -139 975 l -132 1038 l -225 1038 l -182 1138 l -119 1138 l -114 1196 l 60 1196 l 53 1138 l 117 1138 l 104 1038 l 42 1038 l 35 975 z "},"์":{"ha":0,"x_min":-282,"x_max":147,"o":"m -3 975 l -258 975 q -244 1074 -282 1032 q -111 1146 -207 1117 l 147 1146 l -43 1035 l -3 975 z "},"ํ":{"ha":0,"x_min":-279,"x_max":28,"o":"m -50 765 l -197 765 q -272 833 -279 765 l -267 871 q -244 925 -264 908 q -181 940 -224 942 l -49 940 q 8 919 -11 938 q 25 865 28 901 l 19 831 q 0 784 17 801 q -50 765 -17 767 m -179 824 l -62 824 l -57 874 l -174 874 l -179 824 z "},"๎":{"ha":0,"x_min":-275,"x_max":-43,"o":"m -43 922 l -56 888 q -107 894 -79 894 q -171 851 -171 894 q -101 797 -171 806 l -114 765 q -147 771 -131 771 q -210 753 -186 771 q -235 715 -235 736 q -172 678 -235 678 q -128 689 -154 678 l -126 654 q -190 643 -153 643 q -250 663 -225 643 q -275 717 -275 683 q -247 775 -275 751 q -185 799 -219 799 q -212 851 -212 817 q -106 932 -212 932 q -43 922 -68 932 z "},"๏":{"ha":1000,"x_min":49,"x_max":925,"o":"m 244 276 l 333 276 q 369 278 350 276 q 407 286 389 279 q 417 309 413 299 q 422 335 422 319 q 417 358 422 349 q 401 378 411 367 q 367 391 388 389 q 328 393 346 393 l 244 393 l 244 276 m 244 465 l 322 465 q 344 465 333 465 q 363 467 354 465 q 380 470 374 467 q 394 478 386 474 q 407 511 407 493 q 403 533 407 522 q 394 550 400 543 q 380 559 386 557 q 363 561 374 561 q 337 564 349 564 q 317 564 325 564 l 244 564 l 244 465 m 622 276 l 810 276 l 810 207 l 525 207 l 525 217 q 531 256 525 240 q 550 286 538 271 q 568 310 560 300 q 583 335 576 319 q 612 358 597 349 q 640 382 626 368 q 678 413 660 397 q 711 447 696 428 q 731 477 722 463 q 740 511 740 492 q 735 538 740 528 q 721 558 729 547 q 674 574 701 574 q 646 570 656 574 q 622 558 636 567 q 610 530 613 547 q 607 501 607 513 l 607 492 l 533 496 l 533 507 q 544 560 535 535 q 581 601 553 585 q 624 627 600 619 q 674 635 649 635 q 726 626 701 635 q 775 599 751 618 q 810 511 810 563 q 802 465 810 486 q 781 422 794 443 q 761 401 772 414 q 733 378 750 389 q 702 347 718 363 q 671 315 686 331 q 642 295 656 307 q 622 276 629 283 m 521 811 l 521 789 l 453 789 l 453 811 l 121 811 l 121 779 l 96 779 l 96 450 l 117 450 l 117 389 l 96 389 l 96 60 l 121 60 l 121 31 l 453 31 l 453 67 l 521 67 l 521 31 l 856 31 l 856 60 l 886 60 l 886 389 l 860 389 l 860 450 l 886 450 l 886 779 l 856 779 l 856 811 l 521 811 m 453 849 l 521 849 l 521 819 l 856 819 l 856 838 l 915 838 l 915 779 l 896 779 l 896 450 l 925 450 l 925 389 l 896 389 l 896 60 l 915 60 l 915 0 l 856 0 l 856 19 l 521 19 l 521 0 l 453 0 l 453 19 l 121 19 l 121 0 l 57 0 l 57 60 l 79 60 l 79 389 l 49 389 l 49 450 l 79 450 l 79 779 l 57 779 l 57 838 l 121 838 l 121 819 l 453 819 l 453 849 m 431 436 q 458 419 447 425 q 476 401 469 413 q 492 369 488 386 q 496 335 496 353 q 479 267 496 293 q 456 238 469 251 q 426 218 442 225 q 381 208 406 210 q 338 207 357 207 l 165 207 l 165 635 l 333 635 q 393 626 365 635 q 442 599 421 618 q 469 560 461 579 q 476 515 476 542 q 474 488 476 500 q 460 465 472 475 q 447 448 454 454 q 431 436 439 442 z "},"๐":{"ha":667,"x_min":38,"x_max":643,"o":"m 640 513 l 597 119 q 567 36 593 71 q 511 0 542 0 l 101 0 q 61 22 78 0 q 40 79 44 46 q 40 119 38 99 l 83 513 q 114 597 88 560 q 169 632 140 632 l 579 632 q 619 610 603 632 q 640 553 636 586 q 640 513 643 533 m 443 507 l 290 507 l 244 131 l 397 131 l 443 507 z "},"๑":{"ha":667,"x_min":32,"x_max":646,"o":"m 161 629 l 579 631 q 633 601 621 631 q 642 533 646 572 l 581 -49 q 576 -67 579 -58 q 571 -83 574 -76 q 540 -122 561 -108 q 515 -132 525 -132 l 310 -131 l 344 -19 l 381 -19 q 394 109 386 40 q 409 247 401 178 q 424 381 417 315 q 436 500 431 446 l 283 500 q 272 400 276 443 q 262 315 267 357 q 251 230 257 274 q 240 131 246 186 l 318 131 l 271 0 l 193 0 l 285 0 l 82 0 q 44 24 56 0 q 35 74 32 49 l 85 535 q 161 629 97 619 z "},"๒":{"ha":882,"x_min":29,"x_max":871,"o":"m 400 631 l 524 631 l 594 590 l 679 629 l 794 629 q 848 608 825 629 q 865 532 871 588 l 815 81 q 791 22 813 44 q 750 -1 769 -1 l 647 -1 q 639 0 642 -1 l 88 0 q 42 21 56 0 q 36 99 29 42 l 99 676 q 128 738 103 713 q 185 760 154 763 l 311 760 l 303 689 q 288 556 296 629 q 271 408 279 483 q 253 260 263 333 q 239 128 244 188 l 615 128 q 627 230 621 183 q 638 322 633 276 q 649 413 643 367 q 661 517 654 460 l 585 488 l 522 518 l 500 324 l 540 324 l 506 211 q 462 211 482 211 q 423 210 442 211 q 385 210 404 210 q 342 210 365 210 q 303 234 315 210 q 294 283 292 258 l 322 536 q 400 631 335 621 z "},"๓":{"ha":740,"x_min":33,"x_max":731,"o":"m 163 629 l 317 629 l 407 553 l 504 629 l 660 631 q 710 610 690 631 q 725 533 731 589 l 679 85 q 665 51 676 67 q 640 24 654 36 q 610 6 625 13 q 586 0 594 0 l 468 0 l 521 500 l 392 419 l 285 507 q 274 406 279 450 q 265 319 269 361 q 256 233 261 278 q 244 132 250 188 l 328 132 l 272 0 l 83 0 q 45 24 57 0 q 36 74 33 49 l 85 535 q 163 629 97 619 z "},"๔":{"ha":757,"x_min":33,"x_max":771,"o":"m 163 629 l 551 629 q 554 644 553 632 q 560 696 556 657 q 580 745 563 724 q 629 767 597 767 l 771 767 l 740 504 l 285 504 q 273 402 278 447 q 264 315 268 357 q 255 226 260 272 q 244 125 250 181 l 407 125 l 433 368 q 453 417 436 393 q 494 442 469 442 l 683 442 l 693 325 l 632 325 l 610 126 l 706 125 l 693 1 l 479 1 l 413 71 l 339 0 l 82 0 q 45 24 57 0 q 36 74 33 49 l 85 536 q 110 600 92 576 q 163 629 129 624 z "},"๕":{"ha":757,"x_min":33,"x_max":769,"o":"m 163 628 l 244 628 l 244 644 l 247 669 q 278 752 254 731 q 322 771 303 774 l 439 769 q 474 754 458 769 q 483 693 489 739 l 481 664 q 478 644 479 653 q 474 628 476 636 l 551 628 q 554 643 553 631 q 560 696 556 656 q 583 744 563 722 q 624 767 604 767 l 769 767 l 740 504 q 512 503 625 504 q 285 503 399 503 q 273 403 278 447 q 264 315 268 358 q 255 227 260 272 q 244 126 250 182 l 407 126 l 433 368 q 453 417 436 393 q 494 442 469 442 l 600 442 q 603 441 603 442 q 607 440 604 440 l 683 440 l 704 324 l 631 324 l 611 125 l 703 125 l 693 0 l 485 0 l 407 68 l 336 0 l 82 0 q 45 24 57 0 q 36 74 33 49 l 85 535 q 110 599 92 575 q 163 628 129 624 z "},"๖":{"ha":690,"x_min":38,"x_max":676,"o":"m 469 508 q 278 506 374 507 q 88 506 183 506 q 99 606 93 564 q 108 693 104 649 q 129 742 111 719 q 179 764 147 764 l 317 764 l 301 633 l 629 633 q 653 624 638 633 q 674 585 671 610 q 676 560 676 571 l 676 550 l 624 106 q 580 35 608 61 q 503 6 551 10 l 94 6 q 50 31 63 11 q 38 88 38 51 l 38 100 l 69 375 q 89 424 72 400 q 131 447 106 447 l 132 447 l 238 447 l 321 447 l 331 332 l 267 332 l 246 151 q 245 144 246 149 q 244 138 244 140 l 426 138 q 437 234 432 192 q 447 317 442 276 q 457 402 451 357 q 469 508 463 447 z "},"๗":{"ha":949,"x_min":32,"x_max":963,"o":"m 315 629 l 381 560 l 443 629 l 579 631 q 615 627 597 629 q 644 615 632 625 q 663 587 657 606 q 665 533 669 568 l 624 126 l 686 126 l 751 690 q 760 716 753 703 q 778 739 768 729 q 800 755 789 749 q 821 761 811 761 l 963 761 l 890 100 q 858 22 883 43 q 801 0 833 0 l 407 0 l 415 69 l 460 496 l 368 419 l 282 492 q 272 392 276 435 q 263 310 267 350 q 253 226 258 269 q 243 128 249 183 l 313 128 l 271 0 q 176 -1 224 0 q 82 -1 129 -1 q 44 23 56 -1 q 35 72 32 47 l 85 533 q 115 600 92 579 q 169 627 138 621 q 240 631 201 633 q 315 629 278 629 z "},"๘":{"ha":751,"x_min":32,"x_max":765,"o":"m 682 0 l 451 0 l 368 74 l 276 0 l 82 0 q 44 24 56 0 q 35 74 32 49 l 82 535 q 107 601 89 575 q 160 632 125 626 l 549 632 q 551 648 550 636 q 556 699 553 660 q 578 748 558 726 q 618 769 599 769 l 765 769 l 757 688 l 740 535 q 513 534 626 535 q 285 535 399 533 l 242 124 l 375 213 l 492 121 l 513 328 l 443 328 l 483 442 l 675 442 q 712 417 700 442 q 719 368 724 393 l 682 0 z "},"๙":{"ha":867,"x_min":32,"x_max":907,"o":"m 519 0 l 86 0 q 45 27 58 0 q 35 82 32 54 l 82 525 q 110 596 89 569 q 168 629 131 622 l 539 628 q 556 676 542 657 q 599 696 571 694 l 667 696 q 669 713 668 700 q 675 771 671 726 q 692 825 678 800 q 726 850 707 850 l 907 850 l 881 590 l 679 590 l 764 0 l 632 0 l 561 521 l 307 524 l 264 125 l 393 125 l 410 268 l 336 267 l 379 390 q 419 390 406 390 q 444 391 433 390 q 467 392 454 392 q 507 392 481 392 q 549 365 536 392 q 557 310 561 338 l 519 0 z "},"๚":{"ha":725,"x_min":0,"x_max":0,"o":""},"๛":{"ha":968,"x_min":0,"x_max":0,"o":""},"‌":{"ha":0,"x_min":0,"x_max":0,"o":""},"‍":{"ha":0,"x_min":0,"x_max":0,"o":""},"‎":{"ha":0,"x_min":0,"x_max":0,"o":""},"‏":{"ha":0,"x_min":0,"x_max":0,"o":""},"′":{"ha":181,"x_min":0,"x_max":0,"o":""},"″":{"ha":406,"x_min":0,"x_max":0,"o":""},"⁄":{"ha":149,"x_min":0,"x_max":0,"o":""},"₣":{"ha":582,"x_min":0,"x_max":0,"o":""},"₫":{"ha":547,"x_min":0,"x_max":0,"o":""},"ℓ":{"ha":397,"x_min":0,"x_max":0,"o":""},"Ω":{"ha":701,"x_min":0,"x_max":0,"o":""},"℮":{"ha":821,"x_min":0,"x_max":0,"o":""},"⅓":{"ha":744,"x_min":0,"x_max":0,"o":""},"⅔":{"ha":744,"x_min":0,"x_max":0,"o":""},"⅕":{"ha":744,"x_min":0,"x_max":0,"o":""},"⅖":{"ha":744,"x_min":0,"x_max":0,"o":""},"⅗":{"ha":744,"x_min":0,"x_max":0,"o":""},"⅘":{"ha":744,"x_min":0,"x_max":0,"o":""},"⅙":{"ha":744,"x_min":0,"x_max":0,"o":""},"⅚":{"ha":744,"x_min":0,"x_max":0,"o":""},"⅛":{"ha":744,"x_min":0,"x_max":0,"o":""},"⅜":{"ha":744,"x_min":0,"x_max":0,"o":""},"⅝":{"ha":744,"x_min":0,"x_max":0,"o":""},"⅞":{"ha":744,"x_min":0,"x_max":0,"o":""},"∂":{"ha":560,"x_min":0,"x_max":0,"o":""},"∆":{"ha":560,"x_min":0,"x_max":0,"o":""},"∏":{"ha":560,"x_min":0,"x_max":0,"o":""},"∑":{"ha":560,"x_min":0,"x_max":0,"o":""},"−":{"ha":560,"x_min":0,"x_max":0,"o":""},"√":{"ha":560,"x_min":0,"x_max":0,"o":""},"∞":{"ha":689,"x_min":0,"x_max":0,"o":""},"∫":{"ha":560,"x_min":0,"x_max":0,"o":""},"≈":{"ha":560,"x_min":0,"x_max":0,"o":""},"≠":{"ha":560,"x_min":0,"x_max":0,"o":""},"≤":{"ha":560,"x_min":0,"x_max":0,"o":""},"≥":{"ha":560,"x_min":0,"x_max":0,"o":""},"◊":{"ha":560,"x_min":0,"x_max":0,"o":""},"◌":{"ha":567,"x_min":0,"x_max":0,"o":""},"!":{"ha":286,"x_min":25,"x_max":283,"o":"m 213 135 l 204 65 l 235 0 l 25 0 l 40 135 l 213 135 m 113 803 l 283 803 l 219 208 l 50 208 l 113 803 z "},"\"":{"ha":482,"x_min":122,"x_max":463,"o":"m 253 471 l 122 471 l 151 739 l 283 738 l 253 471 l 253 471 l 253 471 m 432 471 l 301 471 l 331 739 l 463 738 l 432 471 l 432 471 l 432 471 z "},"#":{"ha":699,"x_min":47,"x_max":649,"o":"m 156 0 l 176 193 l 47 193 l 63 329 l 190 329 l 206 481 l 79 482 l 93 617 l 221 617 l 226 671 q 254 768 233 732 q 317 807 275 804 l 335 807 l 314 617 l 419 615 l 425 671 q 453 768 432 732 q 515 807 474 804 l 533 807 l 513 615 l 649 615 l 646 589 q 610 504 638 529 q 540 479 582 479 l 499 479 l 482 328 l 618 328 l 615 301 q 579 216 607 242 q 510 190 551 190 l 468 192 l 447 0 l 354 0 l 375 192 l 269 193 l 249 0 l 156 0 m 300 481 l 283 328 l 389 328 l 404 479 l 300 481 z "},"$":{"ha":694,"x_min":33,"x_max":685,"o":"m 540 421 q 594 390 575 404 q 623 360 614 375 q 633 326 632 344 q 632 286 633 308 l 608 96 q 597 60 606 78 q 576 30 589 43 q 545 8 563 17 q 507 0 528 0 l 425 0 l 417 -78 l 208 -78 l 218 0 l 135 0 q 58 35 82 0 q 38 114 33 69 q 42 147 40 131 q 46 181 44 164 l 57 256 l 263 256 l 247 118 l 403 118 l 428 314 l 179 428 q 103 481 125 453 q 86 556 82 510 l 104 708 q 138 775 110 744 q 207 806 165 806 l 311 806 l 321 882 l 526 882 l 518 804 l 589 804 q 660 778 635 801 q 682 706 685 756 q 676 665 679 689 q 671 625 674 640 l 661 549 l 454 549 l 471 686 l 310 686 l 292 536 l 540 421 z "},"%":{"ha":721,"x_min":28,"x_max":699,"o":"m 28 0 l 497 804 l 699 804 l 236 0 l 28 0 m 336 747 l 317 563 q 301 522 315 540 q 275 506 290 506 l 81 506 q 63 517 69 506 q 51 543 53 528 q 51 552 51 547 q 53 563 51 557 l 72 747 q 88 788 74 769 q 114 804 97 804 l 307 804 q 326 793 318 804 q 336 767 333 783 q 336 747 339 758 m 243 744 l 171 744 l 149 568 l 222 568 l 243 744 m 679 243 l 658 57 q 644 17 657 32 q 618 0 632 0 l 424 0 q 404 10 413 0 q 394 38 397 19 l 394 57 l 415 243 q 429 282 418 267 q 456 299 440 299 l 650 299 q 669 289 661 299 q 679 263 676 279 l 679 243 m 585 240 l 513 240 l 492 61 l 564 61 l 585 240 z "},"&":{"ha":657,"x_min":31,"x_max":676,"o":"m 189 428 l 171 456 q 151 495 156 471 q 150 550 147 519 l 163 657 q 178 724 167 697 q 207 768 189 751 q 252 793 225 785 q 317 803 279 801 l 556 803 q 618 773 597 803 q 636 707 639 743 l 618 553 q 584 481 611 508 q 497 429 557 454 l 435 399 l 676 0 l 469 0 l 264 314 l 243 119 l 374 119 l 328 0 l 113 0 q 51 31 72 0 q 33 96 31 61 l 54 288 q 62 328 57 310 q 79 362 67 346 q 115 392 92 378 q 176 422 138 406 l 189 428 m 364 515 l 408 538 l 425 688 l 382 688 l 364 515 z "},"'":{"ha":349,"x_min":122,"x_max":326,"o":"m 296 471 l 122 471 l 153 738 l 326 738 l 296 471 l 296 471 l 296 471 z "},"(":{"ha":450,"x_min":18,"x_max":449,"o":"m 18 -65 l 92 604 l 135 974 l 449 974 l 326 893 l 232 1 l 308 -65 l 18 -65 l 18 -65 l 18 -65 z "},")":{"ha":460,"x_min":25,"x_max":456,"o":"m 456 960 l 382 290 l 339 -79 l 25 -79 l 147 1 l 242 893 l 165 960 l 456 960 l 456 960 l 456 960 z "},"*":{"ha":588,"x_min":147,"x_max":503,"o":"m 314 797 l 379 797 l 367 703 l 442 769 l 483 724 l 407 657 l 503 657 l 496 590 l 400 590 l 460 524 l 407 478 l 349 544 l 338 450 l 272 450 l 283 544 l 207 478 l 167 524 l 242 590 l 147 590 l 154 657 l 249 657 l 190 724 l 242 769 l 301 703 l 314 797 z "},"+":{"ha":699,"x_min":90,"x_max":611,"o":"m 246 86 l 267 274 l 90 274 l 106 429 l 281 429 l 296 585 l 454 585 l 438 429 l 611 431 l 596 276 l 424 274 l 403 86 l 246 86 l 246 86 l 246 86 z "},",":{"ha":281,"x_min":4,"x_max":281,"o":"m 213 -139 l 4 -139 l 72 185 l 281 185 l 213 -139 l 213 -139 l 213 -139 z "},"-":{"ha":564,"x_min":61,"x_max":501,"o":"m 78 443 l 501 443 l 485 288 l 61 288 l 78 443 l 78 443 l 78 443 z "},".":{"ha":326,"x_min":26,"x_max":257,"o":"m 233 0 l 26 0 l 49 185 l 257 185 l 233 0 l 233 0 l 233 0 z "},"/":{"ha":544,"x_min":-35,"x_max":608,"o":"m -35 -61 l 407 857 l 608 857 l 174 -61 l -35 -61 l -35 -61 l -35 -61 z "},":":{"ha":328,"x_min":26,"x_max":293,"o":"m 233 0 l 26 0 l 47 185 l 256 185 l 233 0 m 272 331 l 65 331 l 85 515 l 293 515 l 272 331 z "},";":{"ha":331,"x_min":17,"x_max":293,"o":"m 224 -62 l 17 -62 l 47 185 l 256 185 l 224 -62 m 272 331 l 65 331 l 85 515 l 293 515 l 272 331 z "},"<":{"ha":571,"x_min":0,"x_max":0,"o":""},"=":{"ha":571,"x_min":51,"x_max":513,"o":"m 90 528 l 513 528 l 496 374 l 74 374 l 90 528 l 90 528 l 90 528 m 68 324 l 492 324 l 475 169 l 51 169 l 68 324 l 68 324 l 68 324 z "},">":{"ha":571,"x_min":0,"x_max":0,"o":""},"?":{"ha":642,"x_min":92,"x_max":653,"o":"m 111 729 q 148 815 117 781 q 215 849 179 849 l 653 854 l 631 628 l 519 526 l 500 343 q 415 222 488 222 l 282 224 l 318 529 l 428 619 l 438 700 l 471 729 l 318 729 l 297 564 l 92 564 l 99 624 l 111 729 m 467 0 l 258 0 l 275 153 l 483 153 l 467 0 z "},"˛":{"ha":1157,"x_min":0,"x_max":0,"o":""},"":{"ha":0,"x_min":-747,"x_max":-218,"o":"m -231 765 l -747 765 l -704 865 l -418 865 l -218 865 l -231 765 l -231 765 l -231 765 z "},"":{"ha":0,"x_min":-747,"x_max":-211,"o":"m -231 767 l -747 767 l -704 867 l -418 867 l -410 921 l -211 919 l -231 767 l -231 767 l -231 767 z "},"":{"ha":0,"x_min":-747,"x_max":-215,"o":"m -276 767 l -747 767 l -704 865 l -443 865 q -425 907 -440 894 q -376 919 -410 919 l -276 919 q -219 863 -215 915 l -224 817 q -239 781 -226 794 q -276 767 -251 768 m -378 815 l -289 815 l -285 868 l -374 868 l -378 815 z "},"":{"ha":0,"x_min":-747,"x_max":-211,"o":"m -231 767 l -747 767 l -704 867 l -428 867 l -421 921 l -337 921 l -343 864 l -321 865 l -314 921 l -211 921 l -231 767 l -231 767 l -231 767 z "},"":{"ha":0,"x_min":-444,"x_max":-219,"o":"m -236 767 l -444 767 l -428 921 l -219 921 l -236 767 z "},"":{"ha":0,"x_min":-507,"x_max":18,"o":"m -479 767 l -479 767 l -467 888 l -507 944 l -262 946 l -268 865 l 18 865 l -33 767 l -479 767 l -479 767 z "},"":{"ha":0,"x_min":-603,"x_max":-42,"o":"m -528 947 l -436 947 l -392 892 l -321 947 l -178 947 l -192 842 l -42 842 l -76 767 l -353 767 l -346 824 l -343 850 l -401 800 l -444 850 l -454 767 l -603 767 l -590 876 q -528 947 -579 939 z "},"":{"ha":0,"x_min":-550,"x_max":-208,"o":"m -290 765 l -464 765 l -457 828 l -550 828 l -507 928 l -444 928 l -439 986 l -265 986 l -272 928 l -208 928 l -221 828 l -283 828 l -290 765 z "},"":{"ha":0,"x_min":-575,"x_max":-146,"o":"m -296 765 l -551 765 q -537 865 -575 822 q -404 936 -500 907 l -146 936 l -336 825 l -296 765 z "},"":{"ha":0,"x_min":-201,"x_max":24,"o":"m 7 765 l -201 765 l -185 919 l 24 919 l 7 765 z "},"":{"ha":0,"x_min":-374,"x_max":151,"o":"m -346 765 l -346 765 l -333 886 l -374 943 l -129 944 l -135 864 l 151 864 l 100 765 l -346 765 l -346 765 z "},"":{"ha":0,"x_min":-374,"x_max":188,"o":"m -299 947 l -207 947 l -162 892 l -92 947 l 51 947 l 38 842 l 188 842 l 153 767 l -124 767 l -117 824 l -114 850 l -172 800 l -215 850 l -225 767 l -374 767 l -361 876 q -299 947 -350 939 z "},"":{"ha":0,"x_min":-293,"x_max":49,"o":"m -33 765 l -207 765 l -200 828 l -293 828 l -250 928 l -187 928 l -182 986 l -8 986 l -15 928 l 49 928 l 36 828 l -26 828 l -33 765 z "},"":{"ha":0,"x_min":-265,"x_max":164,"o":"m 14 765 l -242 765 q -228 865 -265 822 q -94 936 -190 907 l 164 936 l -26 825 l 14 765 z "},"":{"ha":0,"x_min":-415,"x_max":-190,"o":"m -207 975 l -415 975 l -399 1129 l -190 1129 l -207 975 z "},"":{"ha":0,"x_min":-482,"x_max":43,"o":"m -454 975 l -454 975 l -442 1096 l -482 1153 l -237 1154 l -243 1074 l 43 1074 l -8 975 l -454 975 l -454 975 z "},"":{"ha":0,"x_min":-593,"x_max":-32,"o":"m -518 1156 l -426 1156 l -382 1100 l -311 1156 l -168 1156 l -182 1050 l -32 1050 l -67 975 l -343 975 l -336 1032 l -333 1058 l -392 1008 l -435 1058 l -444 975 l -593 975 l -581 1085 q -518 1156 -569 1147 z "},"":{"ha":0,"x_min":-485,"x_max":-143,"o":"m -225 975 l -399 975 l -392 1038 l -485 1038 l -442 1138 l -379 1138 l -374 1196 l -200 1196 l -207 1138 l -143 1138 l -156 1038 l -218 1038 l -225 975 z "},"":{"ha":0,"x_min":-540,"x_max":-111,"o":"m -261 975 l -517 975 q -503 1074 -540 1032 q -369 1146 -465 1117 l -111 1146 l -301 1035 l -261 975 z "},"":{"ha":0,"x_min":-478,"x_max":19,"o":"m -478 765 l -478 765 l -461 918 l -262 918 l -267 865 l 19 865 l -32 765 l -478 765 l -478 765 z "},"":{"ha":0,"x_min":-521,"x_max":-214,"o":"m -292 765 l -439 765 q -514 833 -521 765 l -508 871 q -485 925 -506 908 q -422 940 -465 942 l -290 940 q -233 919 -253 938 q -217 865 -214 901 l -222 831 q -242 784 -225 801 q -292 765 -258 767 m -421 824 l -304 824 l -299 874 l -415 874 l -421 824 z "},"":{"ha":0,"x_min":-631,"x_max":-142,"o":"m -282 765 l -374 765 l -417 821 l -489 765 l -631 765 l -611 924 q -506 996 -600 992 l -142 996 l -182 919 l -460 921 l -467 861 l -407 911 l -365 863 l -360 901 l -211 901 l -218 836 q -282 765 -229 774 z "},"":{"ha":0,"x_min":-329,"x_max":-92,"o":"m -306 -376 l -329 -289 l -101 -289 l -119 -485 l -92 -547 l -243 -549 q -304 -522 -283 -547 q -315 -437 -325 -497 l -306 -376 z "},"":{"ha":0,"x_min":-451,"x_max":-99,"o":"m -433 -365 l -451 -289 l -281 -289 l -293 -412 l -296 -443 l -243 -443 l -258 -412 l -256 -376 q -236 -315 -251 -339 q -197 -289 -221 -290 l -103 -289 l -119 -447 l -124 -481 l -99 -551 l -222 -551 l -390 -551 q -436 -528 -421 -550 q -444 -454 -451 -507 l -433 -365 z "},"":{"ha":965,"x_min":26,"x_max":964,"o":"m 50 628 l 554 628 q 606 601 586 628 q 618 517 625 574 l 578 167 l 575 131 l 735 131 l 711 167 l 750 524 q 778 598 757 568 q 832 628 799 628 l 964 628 l 907 126 l 900 85 l 933 0 l 764 0 l 444 0 q 380 28 401 1 q 369 117 358 54 q 389 288 379 203 q 410 458 399 372 l 442 499 l 278 499 l 233 119 l 297 119 l 250 0 l 26 0 l 88 529 l 50 628 z "},"":{"ha":625,"x_min":60,"x_max":663,"o":"m 75 507 q 113 593 82 558 q 181 628 144 628 l 425 628 l 467 714 l 663 714 l 622 628 l 561 121 q 533 31 554 63 q 476 0 513 0 l 349 0 l 376 250 l 275 250 l 293 386 l 392 386 l 401 474 l 435 504 l 282 504 l 267 388 l 60 388 l 75 507 z "},"“":{"ha":482,"x_min":122,"x_max":463,"o":"m 253 471 l 122 471 l 151 739 l 283 738 l 253 471 l 253 471 l 253 471 m 432 471 l 301 471 l 331 739 l 463 738 l 432 471 l 432 471 l 432 471 z "},"”":{"ha":482,"x_min":122,"x_max":463,"o":"m 253 471 l 122 471 l 151 739 l 283 738 l 253 471 l 253 471 l 253 471 m 432 471 l 301 471 l 331 739 l 463 738 l 432 471 l 432 471 l 432 471 z "},"‘":{"ha":349,"x_min":122,"x_max":326,"o":"m 296 471 l 122 471 l 153 738 l 326 738 l 296 471 l 296 471 l 296 471 z "},"’":{"ha":349,"x_min":122,"x_max":326,"o":"m 296 471 l 122 471 l 153 738 l 326 738 l 296 471 l 296 471 l 296 471 z "}}}
